<svg width="188" height="107" fill="none" xmlns="http://www.w3.org/2000/svg"><rect x=".551" y=".5" width="186.436" height="106" rx="3.5" stroke="#AFB1B8"/><path d="M62.09 63.344c.244.276.374.622.367.977.012.231-.032.463-.13.676a1.558 1.558 0 0 1-.438.558 2.627 2.627 0 0 1-1.652.45h-2.904v-6.19h2.845a2.593 2.593 0 0 1 1.575.41c.184.141.33.32.425.52.096.201.14.42.127.639.017.341-.1.677-.33.947-.221.246-.526.416-.866.484.385.064.733.252.981.529Zm-3.406-.935H59.9c.276.019.55-.054.773-.205a.74.74 0 0 0 .208-.275.68.68 0 0 0 .053-.33.702.702 0 0 0-.055-.33.76.76 0 0 0-.203-.275 1.256 1.256 0 0 0-.796-.209h-1.196v1.624Zm2.108 2.375a.775.775 0 0 0 .224-.284.711.711 0 0 0 .063-.346.723.723 0 0 0-.066-.348.788.788 0 0 0-.228-.287 1.34 1.34 0 0 0-.825-.224h-1.276v1.703h1.292c.29.016.578-.06.816-.214ZM67.904 66.006l-1.582-2.42h-.595v2.42h-1.36v-6.192h2.576a2.699 2.699 0 0 1 1.794.526c.36.336.577.78.612 1.249.035.47-.114.935-.42 1.313a2.147 2.147 0 0 1-1.23.63l1.685 2.474h-1.48Zm-2.177-3.264h1.114c.773 0 1.159-.313 1.159-.938a.851.851 0 0 0-.062-.375.916.916 0 0 0-.222-.32 1.282 1.282 0 0 0-.875-.251h-1.127l.013 1.884ZM75.344 64.76H72.63l-.479 1.245h-1.427l2.491-6.121h1.543l2.48 6.121h-1.427l-.468-1.246Zm-.364-.938-.99-2.614-.992 2.614h1.982ZM84.656 66.006h-1.351l-3.03-4.21v4.21h-1.347v-6.192h1.347l3.03 4.235v-4.235h1.35v6.192ZM92.366 64.523c-.28.468-.705.848-1.222 1.092a4.287 4.287 0 0 1-1.9.39H86.84v-6.19h2.405a4.376 4.376 0 0 1 1.9.38c.517.239.943.615 1.222 1.08.278.504.423 1.06.423 1.624 0 .565-.145 1.121-.423 1.624Zm-1.546-.148c.386-.411.598-.935.598-1.477a2.16 2.16 0 0 0-.598-1.478 2.49 2.49 0 0 0-1.691-.526h-.939v4.008h.939a2.488 2.488 0 0 0 1.69-.527ZM76.19 25.375s17.438 6.029 17.068 14.752V54.88S75.832 48.85 76.196 40.127l-.007-14.752ZM108.794 51.427c3.293-2.076 7.103-3.361 11.079-3.739V43.07c-4.582 1.617-8.469 4.548-11.079 8.357Z" fill="#AFB1B8"/><path d="M106.815 52.818c2.696-4.97 7.369-8.805 13.058-10.716V28.793s-24.835 8.587-24.31 21.01v21.006s1.107-.384 2.848-1.104c0-.672 0-1.35.08-2.03.513-5.767 3.508-11.11 8.324-14.857Z" fill="#AFB1B8"/><path d="M104.453 60.622c.13-1.457.422-2.898.869-4.301-2.999 3.235-4.815 7.25-5.193 11.478-.036.4-.056.799-.066 1.21a75.043 75.043 0 0 0 4.777-2.305c-.441-2-.571-4.048-.387-6.082ZM105.441 60.697a19.041 19.041 0 0 0 .307 5.508c6.785-3.717 14.409-9.46 14.115-16.402v-.605c-4.847.496-9.383 2.437-12.909 5.523a19.237 19.237 0 0 0-1.513 5.976Z" fill="#AFB1B8"/></svg>