<svg width="188" height="107" fill="none" xmlns="http://www.w3.org/2000/svg"><rect x="1.038" y=".5" width="186.436" height="106" rx="3.5" stroke="#2196F3"/><path d="M59.967 39.711h-.003c-2.398 0-4.342 1.728-4.342 3.86v.002c0 2.13 1.944 3.858 4.342 3.858h.003c2.398 0 4.342-1.727 4.342-3.858v-.003c0-2.131-1.944-3.859-4.342-3.859ZM92.016 38.478c-.007-2.96-1.333-5.797-3.688-7.89-2.355-2.094-5.547-3.273-8.878-3.28-3.332.006-6.525 1.184-8.881 3.278-2.356 2.093-3.683 4.931-3.69 7.892V54.8s25.134-2.488 25.136-16.32v-.003ZM46.82 60.158c.007 2.06.93 4.033 2.568 5.49 1.639 1.457 3.86 2.278 6.177 2.284 2.317-.006 4.537-.827 6.175-2.283 1.639-1.456 2.562-3.43 2.569-5.488V48.803S46.82 50.535 46.82 60.158Zm8.745 2.035c-.453 0-.896-.12-1.273-.343a2.108 2.108 0 0 1-.843-.913 1.825 1.825 0 0 1-.13-1.176c.088-.395.306-.757.627-1.042.32-.284.728-.478 1.172-.557a2.557 2.557 0 0 1 1.323.116c.418.154.776.415 1.028.75.251.334.386.728.386 1.13a1.84 1.84 0 0 1-.172.781 2.035 2.035 0 0 1-.496.663c-.213.19-.466.34-.744.443a2.541 2.541 0 0 1-.878.156v-.008ZM73.238 61.072h-1.687v1.744h-.88V58.55h2.778v.712h-1.898v1.101h1.687v.71Zm4.225-.293c0 .42-.075.788-.223 1.105-.148.316-.361.56-.639.732a1.755 1.755 0 0 1-.949.258c-.353 0-.669-.085-.946-.255a1.695 1.695 0 0 1-.645-.726 2.51 2.51 0 0 1-.231-1.09v-.211c0-.42.075-.79.225-1.108.153-.32.367-.565.642-.735.278-.172.594-.258.95-.258.355 0 .67.086.946.258.277.17.49.415.641.735.153.319.229.687.229 1.105v.19Zm-.89-.193c0-.447-.08-.787-.241-1.02a.783.783 0 0 0-.686-.348.782.782 0 0 0-.682.346c-.16.228-.242.564-.243 1.007v.208c0 .436.08.774.24 1.014.16.24.39.36.691.36a.775.775 0 0 0 .68-.345c.158-.233.238-.57.24-1.014v-.208Zm3.74 1.11a.447.447 0 0 0-.175-.38c-.118-.09-.329-.184-.633-.282a4.565 4.565 0 0 1-.724-.293c-.484-.261-.726-.614-.726-1.057 0-.23.064-.436.193-.615.13-.182.317-.324.56-.425.244-.102.517-.153.82-.153.305 0 .576.056.814.167.239.11.423.265.554.466.133.201.2.43.2.686h-.88c0-.196-.061-.347-.184-.454-.123-.11-.296-.165-.519-.165-.215 0-.382.046-.5.138a.426.426 0 0 0-.18.358c0 .138.07.255.208.348a2.4 2.4 0 0 0 .619.264c.5.15.864.337 1.092.56.229.222.343.5.343.832 0 .369-.14.659-.419.87-.28.209-.655.313-1.128.313-.328 0-.627-.06-.896-.179a1.438 1.438 0 0 1-.618-.495 1.27 1.27 0 0 1-.211-.726h.882c0 .47.28.706.843.706.21 0 .372-.042.49-.126a.418.418 0 0 0 .175-.358Zm4.69-2.434h-1.306v3.554h-.879v-3.554H81.53v-.712h3.475v.712Zm3.071 1.705h-1.687v1.142h1.98v.707h-2.86V58.55h2.854v.712h-1.974v1.016h1.687v.689Zm2.388.287h-.7v1.562h-.88V58.55h1.586c.504 0 .892.112 1.166.337.273.224.41.542.41.952 0 .291-.064.534-.19.73a1.284 1.284 0 0 1-.572.462l.923 1.744v.04h-.943l-.8-1.561Zm-.7-.712h.709c.22 0 .391-.056.512-.167a.607.607 0 0 0 .182-.466c0-.2-.058-.36-.173-.474-.113-.116-.288-.173-.524-.173h-.706v1.28Zm5.326.77v1.504h-.88V58.55h1.665c.32 0 .602.059.844.176.244.117.431.284.562.5.131.215.197.46.197.736 0 .418-.144.748-.431.99-.285.24-.68.36-1.187.36h-.77Zm0-.711h.785c.232 0 .41-.055.53-.164.123-.11.185-.266.185-.47a.704.704 0 0 0-.185-.506c-.123-.129-.293-.195-.51-.2h-.805v1.34Zm5.56.366h-1.687v1.142h1.98v.707h-2.86V58.55h2.854v.712h-1.974v1.016h1.687v.689Zm4.078-1.705h-1.306v3.554h-.879v-3.554h-1.289v-.712h3.474v.712Zm3.071 1.705h-1.688v1.142h1.981v.707h-2.86V58.55h2.854v.712h-1.975v1.016h1.688v.689Zm2.387.287h-.7v1.562h-.879V58.55h1.585c.504 0 .893.112 1.166.337.274.224.41.542.41.952 0 .291-.063.534-.19.73a1.282 1.282 0 0 1-.571.462l.923 1.744v.04h-.944l-.8-1.561Zm-.7-.712h.709c.221 0 .392-.056.513-.167a.607.607 0 0 0 .182-.466c0-.2-.058-.36-.173-.474-.114-.116-.288-.173-.525-.173h-.706v1.28Zm5.165 1.154a.447.447 0 0 0-.175-.38c-.118-.09-.329-.184-.633-.282a4.566 4.566 0 0 1-.724-.293c-.484-.261-.726-.614-.726-1.057 0-.23.064-.436.193-.615.131-.182.317-.324.559-.425.245-.102.518-.153.821-.153.304 0 .576.056.814.167.238.11.423.265.554.466.133.201.199.43.199.686h-.879c0-.196-.061-.347-.184-.454-.123-.11-.296-.165-.519-.165-.215 0-.382.046-.501.138a.427.427 0 0 0-.179.358c0 .138.07.255.208.348.141.094.347.182.619.264.5.15.864.337 1.092.56.229.222.343.5.343.832 0 .369-.14.659-.419.87-.279.209-.655.313-1.128.313-.328 0-.627-.06-.896-.179a1.432 1.432 0 0 1-.618-.495 1.268 1.268 0 0 1-.211-.726h.882c0 .47.281.706.843.706.209 0 .372-.042.49-.126a.418.418 0 0 0 .175-.358Z" fill="#2196F3"/></svg>