<svg width="188" height="107" fill="none" xmlns="http://www.w3.org/2000/svg"><rect x=".526" y=".5" width="186.436" height="106" rx="3.5" stroke="#AFB1B8"/><path d="M71.714 67.71a.133.133 0 0 1 .084.033l.218.209c-.169.169-.378.303-.613.395-.275.1-.571.15-.87.143-.28.005-.558-.04-.818-.133a1.794 1.794 0 0 1-.616-.374 1.674 1.674 0 0 1-.398-.579 1.927 1.927 0 0 1-.139-.741 1.724 1.724 0 0 1 .573-1.322c.186-.163.408-.291.654-.377.269-.09.555-.135.843-.133a2.27 2.27 0 0 1 .782.121c.216.082.414.195.586.334l-.183.223a.177.177 0 0 1-.046.04.125.125 0 0 1-.073.017.177.177 0 0 1-.08-.024l-.098-.059-.136-.076a1.555 1.555 0 0 0-.43-.132 1.902 1.902 0 0 0-.325-.024 1.762 1.762 0 0 0-.606.1c-.179.062-.34.157-.474.279-.136.129-.24.28-.308.445a1.5 1.5 0 0 0-.112.588 1.53 1.53 0 0 0 .112.597 1.3 1.3 0 0 0 .303.443c.124.12.28.214.452.275.178.064.37.096.562.095.111.001.222-.005.332-.02a1.316 1.316 0 0 0 .72-.305.17.17 0 0 1 .104-.038ZM78.012 66.662c.003.252-.046.502-.147.737a1.595 1.595 0 0 1-.41.572 1.89 1.89 0 0 1-.645.376 2.654 2.654 0 0 1-1.658 0 1.914 1.914 0 0 1-.64-.377 1.68 1.68 0 0 1-.415-.578 1.922 1.922 0 0 1 0-1.476c.093-.215.234-.412.414-.58.183-.158.401-.281.641-.363a2.61 2.61 0 0 1 1.658 0c.242.086.46.214.643.377.18.165.32.359.412.57.1.238.15.49.147.742Zm-.573 0a1.564 1.564 0 0 0-.103-.592 1.219 1.219 0 0 0-.753-.722 1.917 1.917 0 0 0-1.205 0 1.297 1.297 0 0 0-.46.28 1.191 1.191 0 0 0-.295.442 1.738 1.738 0 0 0 0 1.185 1.21 1.21 0 0 0 .755.72c.389.126.817.126 1.205 0 .176-.062.333-.156.461-.277.13-.13.23-.28.292-.443a1.55 1.55 0 0 0 .103-.593ZM82.309 67.283l.057.133c.022-.047.041-.09.063-.133.02-.044.044-.088.07-.13l1.394-2.2c.027-.038.052-.062.08-.07a.376.376 0 0 1 .114-.011h.411v3.58h-.488v-2.744a.974.974 0 0 1 0-.123l-1.401 2.231a.203.203 0 0 1-.082.082.247.247 0 0 1-.12.03h-.079a.243.243 0 0 1-.12-.03.2.2 0 0 1-.082-.082l-1.442-2.245v2.873h-.472v-3.572h.412a.376.376 0 0 1 .115.012c.033.014.06.039.076.069l1.423 2.202a.76.76 0 0 1 .07.128ZM87.552 67.106v1.34h-.545v-3.574h1.216c.23-.004.458.022.678.078.177.043.34.12.48.223a.923.923 0 0 1 .273.35c.064.146.096.301.093.457a.992.992 0 0 1-.395.815c-.14.108-.305.189-.483.237a2.306 2.306 0 0 1-.657.083l-.66-.01Zm0-.384h.66c.143.001.286-.017.422-.055a.921.921 0 0 0 .306-.154.686.686 0 0 0 .25-.538.606.606 0 0 0-.054-.29.69.69 0 0 0-.19-.245 1.172 1.172 0 0 0-.734-.192h-.66v1.474ZM94.88 68.451h-.43a.205.205 0 0 1-.12-.033.223.223 0 0 1-.07-.083l-.372-.865h-1.862l-.384.865a.204.204 0 0 1-.19.116h-.432l1.636-3.58h.567l1.658 3.58Zm-2.698-1.329h1.537l-.649-1.457c-.05-.11-.09-.222-.122-.336l-.063.187c-.02.057-.041.109-.06.151l-.644 1.455ZM97.236 64.888c.033.016.061.037.082.064l2.386 2.698v-2.779h.488v3.58h-.273a.263.263 0 0 1-.111-.021.296.296 0 0 1-.088-.067l-2.383-2.695a.974.974 0 0 1 0 .123v2.66h-.488v-3.58h.29a.26.26 0 0 1 .097.017ZM104.211 67.028v1.42h-.546v-1.42l-1.507-2.156h.488a.196.196 0 0 1 .117.03c.03.023.055.05.074.081l.943 1.39a1.458 1.458 0 0 1 .166.318l.071-.154c.027-.056.058-.11.093-.163l.93-1.4a.366.366 0 0 1 .07-.076.186.186 0 0 1 .118-.036h.493l-1.51 2.166ZM82.039 58.865c.237.026.477.047.72.066 3.679-1.43 6.79-3.77 8.947-6.728 2.157-2.958 3.262-6.403 3.177-9.904l-4.054-3.523c.825 3.728.439 7.58-1.113 11.129-1.553 3.547-4.21 6.65-7.677 8.96Z" fill="#AFB1B8"/><path d="m80.591 58.7.11.02c3.703-2.302 6.527-5.516 8.106-9.227 1.579-3.712 1.84-7.749.749-11.59l-5.775-5.018c2.336 4.124 3.276 8.74 2.711 13.31-.564 4.57-2.61 8.907-5.9 12.506ZM100.176 46.435c-.982 3.847-3.364 7.316-6.795 9.892a21.62 21.62 0 0 1-3.228 2.014c2.793-.713 5.361-1.975 7.505-3.686 2.144-1.712 3.806-3.829 4.86-6.187l-2.342-2.033Z" fill="#AFB1B8"/><path d="m99.257 45.869-3.335-2.897c-.063 3.303-1.144 6.53-3.13 9.348-1.985 2.817-4.803 5.121-8.16 6.672h.016a21.8 21.8 0 0 0 2.239-.116c3.137-1.112 5.909-2.882 8.067-5.152 2.159-2.27 3.637-4.968 4.303-7.855ZM81.074 30.77l-3.978-3.461c-3.556 1.194-6.615 3.293-8.775 6.022s-3.322 5.961-3.333 9.273c.013 3.66 1.43 7.212 4.029 10.093 2.598 2.882 6.228 4.928 10.315 5.815 3.648-3.862 5.784-8.635 6.098-13.624.313-4.989-1.213-9.934-4.356-14.118ZM108.448 45.336c-.015-4.343-2.007-8.504-5.541-11.574-3.534-3.07-8.323-4.801-13.321-4.814a21.18 21.18 0 0 0-6.754 1.092l24.356 21.161a14.358 14.358 0 0 0 1.26-5.865Z" fill="#AFB1B8"/></svg>