<svg width="188" height="107" fill="none" xmlns="http://www.w3.org/2000/svg"><rect x="1.013" y=".5" width="186.436" height="106" rx="3.5" stroke="#AFB1B8"/><path fill-rule="evenodd" clip-rule="evenodd" d="M85.909 24.543h-.137c-.21-.013-.42-.018-.63-.023h-.455c-.397 0-.802.01-1.204.03a.628.628 0 0 0-.092 0 28.276 28.276 0 0 0-10.516 2.684l-.432.208v22.141l1.012-.343c.888-.305 1.834-.58 2.813-.834a34.334 34.334 0 0 1 8.095-1.076v2.91a24.28 24.28 0 0 0-1.065.03h-.084a32.36 32.36 0 0 0-6.228.956 31.636 31.636 0 0 0-7.42 2.891V25.721a29.73 29.73 0 0 1 7.784-3.166 29.793 29.793 0 0 1 7.337-.946h.427c.511.012 1.01.035 1.478.07 1.233.087 2.456.282 3.655.583v2.863a22.626 22.626 0 0 0-3.542-.534l-.072-.006a8.722 8.722 0 0 0-.724-.042Zm5.039 2.927c.635.048 1.292.071 1.958.071a31.466 31.466 0 0 0 7.713-.989 31.764 31.764 0 0 0 7.417-2.894v27.89a29.812 29.812 0 0 1-7.787 3.167 29.936 29.936 0 0 1-7.336.943 22.405 22.405 0 0 1-5.565-.656V26.931c.43.1.873.19 1.323.267.739.125 1.518.216 2.277.272Zm14.194.216-1.012.34c-.931.314-1.869.593-2.813.843a34.263 34.263 0 0 1-8.406 1.078c-.66 0-1.268-.018-1.855-.056l-.806-.053v22.776l.693.061c.642.056 1.305.084 1.973.084a26.883 26.883 0 0 0 6.62-.857 27.75 27.75 0 0 0 5.173-1.859l.433-.208V27.686Z" fill="#AFB1B8"/><path d="M71.532 63.821a1.492 1.492 0 0 0-1.126-.455 1.676 1.676 0 0 0-.65.122 1.464 1.464 0 0 0-.832.842c-.08.2-.119.413-.117.628v3.794c-.008.267.043.533.15.778.09.194.219.368.38.508.15.128.329.22.52.27.185.052.376.078.567.079.211.002.42-.043.612-.132a1.6 1.6 0 0 0 .959-1.465v-.425h-.992v.338a.881.881 0 0 1-.058.339.608.608 0 0 1-.144.213.697.697 0 0 1-.415.145.504.504 0 0 1-.465-.203.898.898 0 0 1-.132-.509v-3.537c-.006-.196.036-.39.121-.567a.507.507 0 0 1 .486-.229.527.527 0 0 1 .443.214.806.806 0 0 1 .164.508v.328h.982v-.386a1.787 1.787 0 0 0-.122-.664 1.564 1.564 0 0 0-.33-.534ZM77.424 63.778a1.765 1.765 0 0 0-1.128-.417c-.202 0-.403.037-.592.107a1.557 1.557 0 0 0-.908.842c-.1.231-.15.482-.145.734v3.639c-.007.256.043.51.145.745.09.196.22.37.384.509.152.14.33.25.524.32a1.711 1.711 0 0 0 1.72-.32c.158-.142.285-.315.374-.509.102-.235.151-.489.144-.745v-3.639a1.77 1.77 0 0 0-.144-.735 1.64 1.64 0 0 0-.374-.531Zm-.463 4.905a.653.653 0 0 1-.197.526.726.726 0 0 1-.934 0 .652.652 0 0 1-.197-.526v-3.639a.653.653 0 0 1 .197-.526.727.727 0 0 1 .934 0 .652.652 0 0 1 .197.526v3.639ZM85.162 70.308V63.42h-.954l-1.252 3.647h-.017l-1.263-3.647h-.943v6.89h.984v-4.192h.017l.964 2.963h.491l.971-2.963h.018v4.191h.984ZM90.753 63.902c-.151-.17-.343-.299-.557-.376a2.178 2.178 0 0 0-.713-.107h-1.462v6.889h.981v-2.69h.506c.307.013.611-.051.886-.189a1.43 1.43 0 0 0 .539-.526c.113-.183.19-.387.225-.6.038-.26.056-.521.053-.783.01-.331-.023-.662-.096-.984a1.466 1.466 0 0 0-.362-.634Zm-.506 2.1a.868.868 0 0 1-.091.36.553.553 0 0 1-.253.24 1.007 1.007 0 0 1-.463.087h-.448v-2.342h.506a.94.94 0 0 1 .443.087.555.555 0 0 1 .23.254c.054.121.083.252.086.384v.458c0 .16.01.325 0 .473h-.01ZM95.403 63.42h-.805l-1.518 6.888h.982l.288-1.48h1.339l.288 1.48h.981l-1.555-6.889Zm-.906 4.47.483-2.497h.018l.48 2.497h-.981ZM101.745 67.57h-.018l-1.483-4.15h-.943v6.888h.981v-4.142h.021l1.5 4.142h.923V63.42h-.981v4.15ZM107.743 63.42l-.79 2.738h-.02l-.789-2.739h-1.04l1.348 3.977v2.912h.982v-2.912l1.348-3.977h-1.039ZM68.795 72.253h.473v1.328h.321v-1.328h.47v-.272h-1.264v.272ZM72.772 71.981l-.62 1.6h.341l.132-.364h.637l.137.364h.35l-.636-1.6h-.341Zm-.051.966.218-.592.217.592h-.435ZM76.703 72.99h.37v.207a.612.612 0 0 1-.38.135.402.402 0 0 1-.34-.153.668.668 0 0 1-.118-.417c0-.356.154-.534.46-.534a.338.338 0 0 1 .362.254l.316-.06c-.068-.314-.293-.471-.678-.471a.804.804 0 0 0-.559.206.782.782 0 0 0-.23.615.872.872 0 0 0 .205.6.776.776 0 0 0 .607.234.962.962 0 0 0 .678-.254v-.63h-.693v.269ZM80.718 71.981h-.324v1.6h1.12v-.273h-.796v-1.327ZM84.112 71.981h-.323v1.6h.323v-1.6ZM87.431 73.05l-.655-1.069h-.313v1.6h.3v-1.046l.643 1.046h.321v-1.6h-.296v1.068ZM90.432 72.876h.797v-.272h-.797v-.35h.857v-.273h-1.181v1.6h1.214v-.273h-.89v-.432ZM97.707 72.612h-.63v-.63h-.321v1.599h.321v-.7h.63v.7h.321v-1.6h-.32v.63ZM100.725 72.876h.799v-.272h-.799v-.35h.86v-.273h-1.181v1.6h1.212v-.273h-.891v-.432ZM104.818 72.876c.278-.043.42-.19.42-.445a.38.38 0 0 0-.157-.356.904.904 0 0 0-.468-.094h-.678v1.6h.322v-.67h.063a.433.433 0 0 1 .2.036c.047.03.086.07.114.117l.349.509h.384l-.195-.313a1.11 1.11 0 0 0-.354-.384Zm-.324-.221h-.237v-.402h.253a.838.838 0 0 1 .326.038.21.21 0 0 1 .07.167.2.2 0 0 1-.025.09.2.2 0 0 1-.06.069.913.913 0 0 1-.327.038ZM107.904 72.876h.797v-.272h-.797v-.35h.861v-.273h-1.184v1.6h1.214v-.273h-.891v-.432Z" fill="#AFB1B8"/></svg>