<svg width="188" height="107" fill="none" xmlns="http://www.w3.org/2000/svg"><rect x=".5" y=".5" width="186.436" height="106" rx="3.5" stroke="#AFB1B8"/><path fill-rule="evenodd" clip-rule="evenodd" d="m73.282 25.609 7.008 6.634-13.008-.008v32.187h34V52.116l7 6.626V25.61h-35Zm27.693 25.728-19.87-18.81h19.87v18.81Zm-6.17 8.377H72.662V38.067h1.565v20.181h20.578v1.466Zm-16.914 8.994-.818 1.684-.818-1.684h-.686l1.194 2.246v1.309h.62v-1.31l1.192-2.245h-.684Zm1.028 3.555.288-.828h1.377l.29.828h.645l-1.345-3.555h-.555l-1.342 3.555h.642Zm.976-2.8.516 1.474h-1.03l.514-1.475Zm3.257 1.388a.808.808 0 0 0-.134.452c0 .3.105.543.315.73.212.186.493.278.845.278.351 0 .654-.095.908-.285l.2.237h.689l-.523-.618c.205-.28.308-.64.308-1.077h-.516c0 .24-.05.457-.148.652l-.687-.81.242-.176a1.34 1.34 0 0 0 .369-.371.785.785 0 0 0 .112-.41.732.732 0 0 0-.249-.565.895.895 0 0 0-.635-.23c-.286 0-.514.082-.683.245-.17.161-.254.38-.254.66 0 .113.027.231.08.353.056.122.153.27.291.445-.264.188-.44.352-.53.49Zm1.604.787a.906.906 0 0 1-.561.2.584.584 0 0 1-.425-.154.533.533 0 0 1-.159-.4c0-.191.098-.36.293-.508l.076-.054.776.916Zm-.637-1.575c-.168-.207-.251-.379-.251-.515 0-.12.034-.218.102-.296a.348.348 0 0 1 .276-.117.37.37 0 0 1 .266.1c.07.065.105.144.105.237a.44.44 0 0 1-.151.344l-.076.061-.271.186Zm5.786 1.93c.244-.212.384-.508.42-.888h-.615c-.033.254-.11.436-.232.545-.122.109-.304.163-.547.163-.265 0-.467-.1-.605-.303-.137-.201-.205-.494-.205-.878v-.315c.003-.38.076-.667.22-.862.144-.197.35-.296.62-.296.23 0 .405.057.524.171.12.113.195.296.225.552h.615c-.039-.389-.178-.69-.417-.903-.24-.213-.555-.32-.948-.32-.291 0-.548.07-.771.207a1.345 1.345 0 0 0-.51.591 2.08 2.08 0 0 0-.179.887v.332c.005.327.066.614.183.861.118.248.284.439.498.574.217.133.467.2.75.2.405 0 .73-.106.974-.317Zm3.63-.497c.121-.264.181-.57.181-.918v-.198a2.148 2.148 0 0 0-.185-.91 1.355 1.355 0 0 0-.52-.601c-.223-.14-.48-.21-.77-.21-.29 0-.546.07-.77.212-.224.14-.397.343-.52.608a2.174 2.174 0 0 0-.184.918v.2c.002.34.063.64.186.901.123.26.297.462.522.603.226.14.483.21.772.21.29 0 .548-.07.77-.21.226-.141.398-.343.519-.605Zm-.661-2.01c.15.21.225.513.225.906v.186c0 .4-.075.705-.223.913-.146.208-.356.313-.63.313a.738.738 0 0 1-.634-.32c-.152-.214-.227-.515-.227-.906v-.205c.003-.383.08-.678.23-.886a.73.73 0 0 1 .627-.315c.273 0 .484.105.632.315Z" fill="#AFB1B8"/></svg>